# xmcd CD database file
# Copyright (C) 1995-1998 Ti Kan
#
# Track frame offsets:
#	182
#	23472
#	37957
#	50430
#	64270
#	78085
#	96565
#	111192
#	128682
#	144482
#	156935
#	170302
#	184890
#	207912
#
# Disc length: 2952 seconds
#
# Revision: 1
# Processed by: cddbd v1.4b41PL3 Copyright (c) Steve Scherf et al.
# Submitted via: CDex 1.30Release
#
DISCID=b70b860e
DTITLE=Jonny Hill - Tommy und Strolch
DYEAR=1900
DGENRE=Country
TTITLE0=Tommy und Strolch
TTITLE1=In dem kleinen Haus am See # (Blanket On The Ground)
TTITLE2=Bist du einsam heut' Nacht # (Are You Lonesome Tonight)
TTITLE3=Einmal noch nach Haus'
TTITLE4=Der Junge mit der Mundharmonika
TTITLE5=Wann wird's mal wieder richtig Sommer # (City Of New Orleans)
TTITLE6=Wenn ich dich verliere # (I Almost Lost My Mind)
TTITLE7=Die Zeit wischt die Schminke aus jedem Gesicht
TTITLE8=Wieviel braucht man zum Glücklichsein?
TTITLE9=Erinnerungen an Tom Dooley
TTITLE10=Tränen lügen nicht
TTITLE11=Etwas Liebe am Abend
TTITLE12=El Lute
TTITLE13=Jetzt sage ich euch:Gute Nacht
EXTD=ID3G:   2
EXTT0=
EXTT1=
EXTT2=
EXTT3=
EXTT4=
EXTT5=
EXTT6=
EXTT7=
EXTT8=
EXTT9=
EXTT10=
EXTT11=
EXTT12=
EXTT13=
PLAYORDER=
